<mxfile host="app.diagrams.net" modified="2023-08-02T05:50:53.222Z" agent="Mozilla/5.0 (Windows NT 10.0; Win64; x64) AppleWebKit/537.36 (KHTML, like Gecko) Chrome/115.0.0.0 Safari/537.36" etag="-y5WEKdxjxR7HhATZF7Y" version="21.6.6" type="github">
  <diagram name="Page-1" id="80d4a630-b321-0f5e-ff81-c5a36ef4752d">
    <mxGraphModel dx="1434" dy="694" grid="1" gridSize="10" guides="1" tooltips="1" connect="1" arrows="1" fold="1" page="1" pageScale="1" pageWidth="1100" pageHeight="850" background="none" math="0" shadow="0">
      <root>
        <mxCell id="0" />
        <mxCell id="1" parent="0" />
        <mxCell id="5c82df7aa0dc6260-14" value="" style="ellipse;whiteSpace=wrap;html=1;rounded=1;shadow=0;comic=0;labelBackgroundColor=none;strokeColor=#6881B3;strokeWidth=2;fillColor=#CCFFCC;fontFamily=Helvetica;fontSize=22;fontColor=#000000;verticalAlign=middle;gradientColor=none;gradientDirection=north;spacingBottom=17;" parent="1" vertex="1">
          <mxGeometry x="200" y="450" width="380" height="190" as="geometry" />
        </mxCell>
        <mxCell id="5c82df7aa0dc6260-1" value="" style="fontColor=#0066CC;verticalAlign=top;verticalLabelPosition=bottom;labelPosition=center;align=center;html=1;fillColor=#FFFFFF;strokeColor=#000000;gradientColor=none;gradientDirection=north;strokeWidth=2;shape=mxgraph.networks.radio_tower;rounded=1;shadow=0;comic=0;labelBackgroundColor=none;" parent="1" vertex="1">
          <mxGeometry x="470" y="60" width="55" height="100" as="geometry" />
        </mxCell>
        <mxCell id="5c82df7aa0dc6260-79" value="" style="html=1;fillColor=#CCCCCC;strokeColor=#000000;gradientColor=none;gradientDirection=north;strokeWidth=2;shape=mxgraph.networks.comm_link_edge;html=1;labelBackgroundColor=none;endArrow=none;fontFamily=Verdana;fontSize=22;fontColor=#000000;" parent="1" edge="1">
          <mxGeometry width="100" height="100" relative="1" as="geometry">
            <mxPoint x="480" y="160.00431906614787" as="sourcePoint" />
            <mxPoint x="460" y="360" as="targetPoint" />
          </mxGeometry>
        </mxCell>
        <mxCell id="RNbNUNx6kuTQeXkMq7mM-5" value="Mobile" style="shape=image;verticalLabelPosition=bottom;verticalAlign=top;imageAspect=0;aspect=fixed;image=data:image/svg+xml,PHN2ZyB4bWxucz0iaHR0cDovL3d3dy53My5vcmcvMjAwMC9zdmciIHZlcnNpb249IjEiIHZpZXdCb3g9IjAgMCA0OCA0OCIgZW5hYmxlLWJhY2tncm91bmQ9Im5ldyAwIDAgNDggNDgiPiYjeGE7ICAgIDxwYXRoIGZpbGw9IiMzNzQ3NEYiIGQ9Ik00LDM5VjdjMC0yLjIsMS44LTQsNC00aDIyYzIuMiwwLDQsMS44LDQsNHYzMmMwLDIuMi0xLjgsNC00LDRIOEM1LjgsNDMsNCw0MS4yLDQsMzl6Ii8+JiN4YTsgICAgPHBhdGggZmlsbD0iI0JCREVGQiIgZD0iTTMwLDZIOEM3LjQsNiw3LDYuNCw3LDd2MjljMCwwLjYsMC40LDEsMSwxaDIyYzAuNiwwLDEtMC40LDEtMVY3QzMxLDYuNCwzMC42LDYsMzAsNnoiLz4mI3hhOyAgICA8cmVjdCB4PSIxNSIgeT0iMzkiIGZpbGw9IiM3ODkwOUMiIHdpZHRoPSI2IiBoZWlnaHQ9IjIiLz4mI3hhOyAgICA8cGF0aCBmaWxsPSIjRTM4OTM5IiBkPSJNMjQsNDFWMTdjMC0yLjIsMS44LTQsNC00aDEyYzIuMiwwLDQsMS44LDQsNHYyNGMwLDIuMi0xLjgsNC00LDRIMjhDMjUuOCw0NSwyNCw0My4yLDI0LDQxeiIvPiYjeGE7ICAgIDxwYXRoIGZpbGw9IiNGRkYzRTAiIGQ9Ik00MCwxNkgyOGMtMC42LDAtMSwwLjQtMSwxdjIyYzAsMC42LDAuNCwxLDEsMWgxMmMwLjYsMCwxLTAuNCwxLTFWMTdDNDEsMTYuNCw0MC42LDE2LDQwLDE2eiIvPiYjeGE7ICAgIDxjaXJjbGUgZmlsbD0iI0E2NjQyQSIgY3g9IjM0IiBjeT0iNDIuNSIgcj0iMS41Ii8+JiN4YTs8L3N2Zz4=;labelBackgroundColor=#ffffff;" vertex="1" parent="1">
          <mxGeometry x="240" y="530" width="30" height="30" as="geometry" />
        </mxCell>
        <mxCell id="RNbNUNx6kuTQeXkMq7mM-8" value="" style="shape=image;verticalLabelPosition=bottom;verticalAlign=top;imageAspect=0;aspect=fixed;image=data:image/svg+xml,PHN2ZyB4bWxucz0iaHR0cDovL3d3dy53My5vcmcvMjAwMC9zdmciIHZlcnNpb249IjEiIHZpZXdCb3g9IjAgMCA0OCA0OCIgZW5hYmxlLWJhY2tncm91bmQ9Im5ldyAwIDAgNDggNDgiPiYjeGE7ICAgIDxyZWN0IHg9IjI3IiB5PSI4IiBmaWxsPSIjMzc0NzRGIiB3aWR0aD0iMTAiIGhlaWdodD0iNCIvPiYjeGE7ICAgIDxwYXRoIGZpbGw9IiM2MDdEOEIiIGQ9Ik0yNyw4aC05LjdjLTEuNSwwLTIuOCwwLjgtMy41LDIuMWwtMy4zLDZMMTQsMThsMy4zLTZIMjd2Ny4yaDRWMTJDMzEsOS44LDI5LjIsOCwyNyw4eiIvPiYjeGE7ICAgIDxwYXRoIGZpbGw9IiM2MDdEOEIiIGQ9Ik0zMCw0MEg2Yy0yLjIsMC00LTEuOC00LTRWMjBjMC0yLjIsMS44LTQsNC00aDI0YzIuMiwwLDQsMS44LDQsNHYxNkMzNCwzOC4yLDMyLjIsNDAsMzAsNDB6Ii8+JiN4YTsgICAgPHBhdGggZmlsbD0iIzYwN0Q4QiIgZD0iTTM4LDM1bDUsNWgzVjE4aC0zbC01LDVWMzV6Ii8+JiN4YTsgICAgPHBhdGggZmlsbD0iIzU0NkU3QSIgZD0iTTIyLDM1SDhjLTEuMSwwLTItMC45LTItMlYyM2MwLTEuMSwwLjktMiwyLTJoMTRjMS4xLDAsMiwwLjksMiwydjEwQzI0LDM0LjEsMjMuMSwzNSwyMiwzNXoiLz4mI3hhOyAgICA8cmVjdCB4PSIzNCIgeT0iMjMiIGZpbGw9IiM0NTVBNjQiIHdpZHRoPSI0IiBoZWlnaHQ9IjEyIi8+JiN4YTsgICAgPHBhdGggZmlsbD0iIzI2MzIzOCIgZD0iTTQxLDEzaC00Yy0wLjYsMC0xLTAuNC0xLTFWOGMwLTAuNiwwLjQtMSwxLTFoNGMxLjcsMCwzLDEuMywzLDN2MEM0NCwxMS43LDQyLjcsMTMsNDEsMTN6Ii8+JiN4YTsgICAgPHJlY3QgeD0iOCIgeT0iMjMiIGZpbGw9IiMwM0E5RjQiIHdpZHRoPSIxNCIgaGVpZ2h0PSIxMCIvPiYjeGE7ICAgIDxwb2x5Z29uIGZpbGw9IiM0RkMzRjciIHBvaW50cz0iMTMuNSwyNS41IDksMzIgMTgsMzIiLz4mI3hhOyAgICA8ZyBmaWxsPSIjQjNFNUZDIj4mI3hhOyAgICAgICAgPGNpcmNsZSBjeD0iMTkuNSIgY3k9IjI1LjUiIHI9IjEuNSIvPiYjeGE7ICAgICAgICA8cG9seWdvbiBwb2ludHM9IjE3LjUsMjcuNiAxNCwzMiAyMSwzMiIvPiYjeGE7ICAgIDwvZz4mI3hhOzwvc3ZnPg==" vertex="1" parent="1">
          <mxGeometry x="90" y="560" width="48" height="48" as="geometry" />
        </mxCell>
        <mxCell id="RNbNUNx6kuTQeXkMq7mM-9" value="" style="shape=image;verticalLabelPosition=bottom;verticalAlign=top;imageAspect=0;aspect=fixed;image=data:image/svg+xml,PHN2ZyB4bWxucz0iaHR0cDovL3d3dy53My5vcmcvMjAwMC9zdmciIHZlcnNpb249IjEiIHZpZXdCb3g9IjAgMCA0OCA0OCIgZW5hYmxlLWJhY2tncm91bmQ9Im5ldyAwIDAgNDggNDgiPiYjeGE7ICAgIDxwYXRoIGZpbGw9IiMzNzQ3NEYiIGQ9Ik0xMCw0MVY3YzAtMi4yLDEuOC00LDQtNGgyMGMyLjIsMCw0LDEuOCw0LDR2MzRjMCwyLjItMS44LDQtNCw0SDE0QzExLjgsNDUsMTAsNDMuMiwxMCw0MXoiLz4mI3hhOyAgICA8cGF0aCBmaWxsPSIjQkJERUZCIiBkPSJNMzQsNkgxNGMtMC42LDAtMSwwLjQtMSwxdjM0YzAsMC42LDAuNCwxLDEsMWgyMGMwLjYsMCwxLTAuNCwxLTFWN0MzNSw2LjQsMzQuNiw2LDM0LDZ6Ii8+JiN4YTsgICAgPGcgZmlsbD0iIzNGNTFCNSI+JiN4YTsgICAgICAgIDxwYXRoIGQ9Ik0yOSwzMEgxOWMtMC42LDAtMS0wLjQtMS0xdi02YzAtMC42LDAuNC0xLDEtMWgxMGMwLjYsMCwxLDAuNCwxLDF2NkMzMCwyOS42LDI5LjYsMzAsMjksMzB6Ii8+JiN4YTsgICAgICAgIDxwYXRoIGQ9Ik0yNCwxNmMtMi4yLDAtNCwxLjgtNCw0djNoMnYtM2MwLTEuMSwwLjktMiwyLTJzMiwwLjksMiwydjNoMnYtM0MyOCwxNy44LDI2LjIsMTYsMjQsMTZ6Ii8+JiN4YTsgICAgPC9nPiYjeGE7PC9zdmc+" vertex="1" parent="1">
          <mxGeometry x="10" y="502" width="48" height="48" as="geometry" />
        </mxCell>
        <mxCell id="RNbNUNx6kuTQeXkMq7mM-13" value="" style="shape=image;verticalLabelPosition=bottom;verticalAlign=top;imageAspect=0;aspect=fixed;image=data:image/svg+xml,PHN2ZyB4bWxucz0iaHR0cDovL3d3dy53My5vcmcvMjAwMC9zdmciIHZlcnNpb249IjEiIHZpZXdCb3g9IjAgMCA0OCA0OCIgZW5hYmxlLWJhY2tncm91bmQ9Im5ldyAwIDAgNDggNDgiPiYjeGE7ICAgIDxwYXRoIGZpbGw9IiM5MENBRjkiIGQ9Ik00Miw0Mkg2VjEwYzAtMi4yLDEuOC00LDQtNGgyOGMyLjIsMCw0LDEuOCw0LDRWNDJ6Ii8+JiN4YTsgICAgPHJlY3QgeD0iNiIgeT0iNDIiIGZpbGw9IiM2NEI1RjYiIHdpZHRoPSIzNiIgaGVpZ2h0PSIyIi8+JiN4YTsgICAgPGcgZmlsbD0iIzE1NjVDMCI+JiN4YTsgICAgICAgIDxyZWN0IHg9IjMxIiB5PSIyNyIgd2lkdGg9IjYiIGhlaWdodD0iNSIvPiYjeGE7ICAgICAgICA8cmVjdCB4PSIyMSIgeT0iMjciIHdpZHRoPSI2IiBoZWlnaHQ9IjUiLz4mI3hhOyAgICAgICAgPHJlY3QgeD0iMTEiIHk9IjI3IiB3aWR0aD0iNiIgaGVpZ2h0PSI1Ii8+JiN4YTsgICAgICAgIDxyZWN0IHg9IjMxIiB5PSIzNSIgd2lkdGg9IjYiIGhlaWdodD0iNSIvPiYjeGE7ICAgICAgICA8cmVjdCB4PSIxMSIgeT0iMzUiIHdpZHRoPSI2IiBoZWlnaHQ9IjUiLz4mI3hhOyAgICAgICAgPHJlY3QgeD0iMzEiIHk9IjE5IiB3aWR0aD0iNiIgaGVpZ2h0PSI1Ii8+JiN4YTsgICAgICAgIDxyZWN0IHg9IjIxIiB5PSIxOSIgd2lkdGg9IjYiIGhlaWdodD0iNSIvPiYjeGE7ICAgICAgICA8cmVjdCB4PSIxMSIgeT0iMTkiIHdpZHRoPSI2IiBoZWlnaHQ9IjUiLz4mI3hhOyAgICAgICAgPHJlY3QgeD0iMzEiIHk9IjExIiB3aWR0aD0iNiIgaGVpZ2h0PSI1Ii8+JiN4YTsgICAgICAgIDxyZWN0IHg9IjIxIiB5PSIxMSIgd2lkdGg9IjYiIGhlaWdodD0iNSIvPiYjeGE7ICAgICAgICA8cmVjdCB4PSIxMSIgeT0iMTEiIHdpZHRoPSI2IiBoZWlnaHQ9IjUiLz4mI3hhOyAgICAgICAgPHJlY3QgeD0iMjEiIHk9IjM1IiB3aWR0aD0iNiIgaGVpZ2h0PSI5Ii8+JiN4YTsgICAgPC9nPiYjeGE7PC9zdmc+" vertex="1" parent="1">
          <mxGeometry x="60" y="370" width="48" height="48" as="geometry" />
        </mxCell>
        <mxCell id="RNbNUNx6kuTQeXkMq7mM-14" value="" style="shape=image;verticalLabelPosition=bottom;verticalAlign=top;imageAspect=0;aspect=fixed;image=data:image/svg+xml,PHN2ZyB4bWxucz0iaHR0cDovL3d3dy53My5vcmcvMjAwMC9zdmciIHZlcnNpb249IjEiIHZpZXdCb3g9IjAgMCA0OCA0OCIgZW5hYmxlLWJhY2tncm91bmQ9Im5ldyAwIDAgNDggNDgiPiYjeGE7ICAgIDxwYXRoIGZpbGw9IiM1NDZFN0EiIGQ9Ik00NCwzMEg0VjExYzAtMi4yLDEuOC00LDQtNGgzMmMyLjIsMCw0LDEuOCw0LDRWMzB6Ii8+JiN4YTsgICAgPHBhdGggZmlsbD0iIzY0QjVGNiIgZD0iTTQwLDI3SDhjLTAuNiwwLTEtMC40LTEtMVYxMWMwLTAuNiwwLjQtMSwxLTFoMzJjMC42LDAsMSwwLjQsMSwxdjE1QzQxLDI2LjYsNDAuNiwyNyw0MCwyN3oiLz4mI3hhOyAgICA8cGF0aCBmaWxsPSIjNzg5MDlDIiBkPSJNNDAsNDFIOGMtMi4yLDAtNC0xLjgtNC00di03aDQwdjdDNDQsMzkuMiw0Mi4yLDQxLDQwLDQxeiIvPiYjeGE7ICAgIDxnIGZpbGw9IiMzNzQ3NEYiPiYjeGE7ICAgICAgICA8cmVjdCB4PSIyNyIgeT0iMzQiIHdpZHRoPSIxMiIgaGVpZ2h0PSIyIi8+JiN4YTsgICAgICAgIDxyZWN0IHg9IjkiIHk9IjM0IiB3aWR0aD0iMTIiIGhlaWdodD0iMiIvPiYjeGE7ICAgICAgICA8cGF0aCBkPSJNMTgsMzVjMCwxLjEtMS4zLDItMywycy0zLTAuOS0zLTJIMTh6Ii8+JiN4YTsgICAgPC9nPiYjeGE7PC9zdmc+" vertex="1" parent="1">
          <mxGeometry x="190" y="420" width="48" height="48" as="geometry" />
        </mxCell>
        <mxCell id="RNbNUNx6kuTQeXkMq7mM-15" value="" style="shape=image;verticalLabelPosition=bottom;verticalAlign=top;imageAspect=0;aspect=fixed;image=data:image/svg+xml,PHN2ZyB4bWxucz0iaHR0cDovL3d3dy53My5vcmcvMjAwMC9zdmciIHZlcnNpb249IjEiIHZpZXdCb3g9IjAgMCA0OCA0OCIgZW5hYmxlLWJhY2tncm91bmQ9Im5ldyAwIDAgNDggNDgiPiYjeGE7ICAgIDxyZWN0IHg9IjEyIiB5PSI0NCIgZmlsbD0iIzI2MzIzOCIgd2lkdGg9IjQiIGhlaWdodD0iMiIvPiYjeGE7ICAgIDxyZWN0IHg9IjMyIiB5PSI0NCIgZmlsbD0iIzI2MzIzOCIgd2lkdGg9IjQiIGhlaWdodD0iMiIvPiYjeGE7ICAgIDxwYXRoIGZpbGw9IiM2MDdEOEIiIGQ9Ik04LDQxVjdjMC0yLjIsMS44LTQsNC00aDI0YzIuMiwwLDQsMS44LDQsNHYzNGMwLDIuMi0xLjgsNC00LDRIMTJDOS44LDQ1LDgsNDMuMiw4LDQxeiIvPiYjeGE7ICAgIDxwYXRoIGZpbGw9IiNCMEJFQzUiIGQ9Ik0xMiwxN1Y4YzAtMC42LDAuNC0xLDEtMWgyMmMwLjYsMCwxLDAuNCwxLDF2OUgxMnoiLz4mI3hhOyAgICA8cmVjdCB4PSIxMiIgeT0iMTkiIGZpbGw9IiNCMEJFQzUiIHdpZHRoPSIyNCIgaGVpZ2h0PSIxMCIvPiYjeGE7ICAgIDxwYXRoIGZpbGw9IiNCMEJFQzUiIGQ9Ik0xMiw0MHYtOWgyNHY5YzAsMC42LTAuNCwxLTEsMUgxM0MxMi40LDQxLDEyLDQwLjYsMTIsNDB6Ii8+JiN4YTsgICAgPHJlY3QgeD0iMjAiIHk9IjExIiBmaWxsPSIjNTQ2RTdBIiB3aWR0aD0iOCIgaGVpZ2h0PSIyIi8+JiN4YTsgICAgPHJlY3QgeD0iMjAiIHk9IjIzIiBmaWxsPSIjNTQ2RTdBIiB3aWR0aD0iOCIgaGVpZ2h0PSIyIi8+JiN4YTsgICAgPHJlY3QgeD0iMjAiIHk9IjM1IiBmaWxsPSIjNTQ2RTdBIiB3aWR0aD0iOCIgaGVpZ2h0PSIyIi8+JiN4YTs8L3N2Zz4=" vertex="1" parent="1">
          <mxGeometry x="630" y="310" width="48" height="48" as="geometry" />
        </mxCell>
      </root>
    </mxGraphModel>
  </diagram>
</mxfile>
